<svg width="120" height="120" viewBox="0 0 120 120" fill="none" xmlns="http://www.w3.org/2000/svg">
<path fill-rule="evenodd" clip-rule="evenodd" d="M91.4062 0C108.75 0 120 11.25 120 28.5938V91.4062C120 108.75 108.75 120 91.4062 120H28.5938C11.25 120 0 108.75 0 91.4062V28.5938C0 11.25 11.25 0 28.5938 0H91.4062Z" fill="#3B6CF5"/>
<path d="M109.75 60C109.75 87.4762 87.4762 109.75 60 109.75C32.5238 109.75 10.25 87.4762 10.25 60C10.25 32.5238 32.5238 10.25 60 10.25C87.4762 10.25 109.75 32.5238 109.75 60Z" fill="#3B6CF5" stroke="white" stroke-width="4.5"/>
<path d="M41.3684 89.2234C41.158 89.0757 41.0582 88.8054 40.9425 88.7982C37.2079 88.567 34.7968 85.1521 35.0975 81.7394C35.1658 80.9645 35.1065 80.178 35.1056 79.1879C35.1127 77.8488 35.1201 76.7188 35.2059 75.5882C35.8845 75.0298 36.5536 74.5308 37.0735 73.9041C39.8209 70.5919 42.5065 67.2267 45.2687 63.9275C46.0707 62.9695 47.0546 62.1685 47.9854 61.395C48.0255 68.4159 48.0517 75.3373 48.0347 82.2586C48.0297 84.2938 47.2791 86.0414 45.6774 87.3254C45.0384 87.8377 44.3218 88.2501 43.5219 88.7876C57.3198 88.7876 70.9758 88.7876 84.6317 88.7876C84.5842 88.8936 84.5367 88.9996 84.5536 89.1645C70.2358 89.2234 55.8537 89.2234 41.3684 89.2234Z" fill="#65AFFF"/>
<path d="M84.718 88.7756C70.9758 88.7877 57.3198 88.7877 43.522 88.7877C44.3218 88.2501 45.0385 87.8378 45.6774 87.3255C47.2791 86.0414 48.0297 84.2939 48.0347 82.2587C48.0517 75.3374 48.0255 68.416 48.0192 61.2954C48.0012 60.2687 47.9797 59.4411 47.9911 58.5151C48.0026 57.7369 47.9814 57.0571 47.9923 56.2802C48.0034 55.5752 47.9824 54.9674 47.9914 54.2606C48.0211 53.2601 48.0208 52.3586 48.0415 51.3542C48.0511 49.6821 48.0396 48.1127 48.0479 46.4401C48.076 42.7447 48.0843 39.1526 48.0927 35.5605C48.3409 33.2417 50.7181 30.9393 53.0387 30.9336C63.9616 30.907 74.8846 30.902 85.8074 30.9404C88.4124 30.9495 90.7439 33.7267 90.7476 36.6547C90.7565 43.6155 90.7509 50.5764 90.7509 57.5372C90.7509 65.4287 90.7831 73.3203 90.7356 81.2115C90.7143 84.7465 88.6201 87.5799 85.3459 88.6961C85.1769 88.7537 84.9853 88.7425 84.718 88.7756ZM74.2622 51.899C76.9216 51.8323 79.581 51.7656 82.2404 51.6989C82.3137 51.6971 82.3892 51.7068 82.4597 51.6919C83.4007 51.4931 84.0949 50.9067 84.1694 49.9633C84.3291 47.9397 84.3705 45.9039 84.3901 43.8725C84.401 42.7348 84.2275 41.5963 84.2148 40.4573C84.1905 38.2798 83.2079 37.3562 81.121 37.3593C73.1372 37.3712 65.1532 37.3919 57.1696 37.344C55.2632 37.3326 54.3066 38.4136 54.2619 40.2974C54.2018 42.825 54.1683 45.3587 54.2766 47.883C54.3414 49.3935 54.2816 51.111 56.3573 51.8298C62.2605 51.8441 68.1637 51.8584 74.2622 51.899ZM57.8875 63.5454C61.6258 63.5453 65.3644 63.5134 69.102 63.565C70.182 63.5799 70.9495 63.147 71.088 62.1525C71.2591 60.9249 71.2483 59.6368 71.0831 58.4071C70.9653 57.5301 70.1956 57.0391 69.2859 57.0362C64.9247 57.0219 60.5634 57.0233 56.2022 57.0351C55.3178 57.0375 54.5614 57.472 54.4819 58.3686C54.3613 59.7305 54.3547 61.132 54.5562 62.477C54.6193 62.8979 55.4696 63.3091 56.0337 63.5067C56.5252 63.679 57.121 63.5444 57.8875 63.5454Z" fill="#FDFEFF"/>
<path d="M48.0109 35.6143C48.0844 39.1525 48.0761 42.7446 47.9727 46.4403C47.5159 46.8227 47.0935 47.0484 46.8043 47.3903C46.0251 48.3116 45.316 49.2937 44.5552 50.2317C42.2025 53.1317 39.8638 56.0441 37.4632 58.9028C36.7871 59.7078 35.9165 60.3445 35.1279 60.9543C35.1254 59.0581 35.1301 57.2661 35.2125 55.4737C35.6358 55.2332 36.0564 55.0566 36.3146 54.7423C37.8661 52.8537 39.4054 50.9533 40.8967 49.0154C41.6606 48.0228 42.3164 46.9444 43.1241 45.8962C43.9961 45.8845 44.7669 45.913 45.5336 45.8695C46.3104 45.8254 47.0833 45.7101 47.8578 45.6261C47.8816 42.3067 47.9053 38.9874 48.0109 35.6143Z" fill="#86BFFF"/>
<path d="M25.1914 74.9458C24.8307 73.8336 24.1708 72.7249 24.1579 71.6086C24.0768 64.5486 24.1391 57.4869 24.2375 50.4783C24.3233 54.19 24.3256 57.8491 24.3259 61.6131C24.324 64.2108 24.324 66.7036 24.324 69.1964C24.4906 69.2139 24.6572 69.2314 24.8237 69.2489C26.1959 61.5301 27.568 53.8113 29.0314 46.0898C29.8015 46.0184 30.4804 45.9495 31.1535 45.9326C31.1479 45.9845 31.1457 46.089 31.074 46.126C30.8267 46.5071 30.5582 46.8331 30.49 47.1978C29.7386 51.2162 29.017 55.2403 28.2901 59.2634C27.8382 61.7649 27.4262 64.2745 26.9321 66.7673C26.3903 69.5013 25.7748 72.2203 25.1914 74.9458Z" fill="#67A7FD"/>
<path d="M27.8161 77.6125C27.4722 77.4335 27.1283 77.2546 26.833 76.9968C27.1271 76.5405 27.4897 76.1936 27.5944 75.7794C27.8286 74.8526 27.9249 73.8906 28.0939 72.946C29.2573 66.444 30.4092 59.9398 31.6001 53.443C31.9854 51.3416 32.4763 49.2602 32.9783 47.209C33.2878 47.5262 33.5378 47.8041 33.7774 48.1702C33.4118 49.9568 33.0175 51.6478 32.7083 53.3547C31.2936 61.1638 29.9088 68.9784 28.4814 76.7851C28.4253 77.0921 28.0453 77.3381 27.8161 77.6125Z" fill="#5B97FB"/>
<path d="M27.8496 77.6855C28.0454 77.3381 28.4255 77.0921 28.4816 76.7851C29.909 68.9784 31.2938 61.1638 32.7085 53.3547C33.0177 51.6478 33.412 49.9568 33.8525 48.189C34.2574 48.783 34.5768 49.4466 34.8154 50.1241C34.4783 50.9507 34.1331 51.7466 33.9798 52.5789C32.7926 59.024 31.6568 65.4788 30.473 71.9245C30.0812 74.0576 29.5956 76.1731 29.153 78.2966C28.7296 78.1172 28.3063 77.9379 27.8496 77.6855Z" fill="#5792FA"/>
<path d="M28.9403 46.0923C27.5682 53.8112 26.196 61.53 24.8239 69.2488C24.6573 69.2313 24.4908 69.2138 24.3242 69.1964C24.3242 66.7035 24.3242 64.2107 24.4054 61.598C24.7237 60.8018 25.0488 60.1428 25.1826 59.446C25.7911 56.2754 26.3784 53.0996 26.9028 49.9138C27.0955 48.7434 27.094 47.54 27.181 46.3516C27.273 46.339 27.365 46.3263 27.5766 46.2961C27.7603 46.2466 27.8082 46.1982 27.8398 46.1332C27.8398 46.1332 27.9379 46.0972 28.0795 46.0938C28.4609 46.0911 28.7006 46.0917 28.9403 46.0923Z" fill="#6DAFFE"/>
<path d="M32.919 47.1693C32.4764 49.2599 31.9854 51.3413 31.6002 53.4427C30.4093 59.9395 29.2573 66.4437 28.094 72.9457C27.925 73.8903 27.8287 74.8523 27.5945 75.7791C27.4898 76.1933 27.1272 76.5402 26.7996 76.9286C26.4471 76.6856 26.1765 76.4318 25.9858 76.1049C26.2911 75.7396 26.6416 75.4776 26.7185 75.1495C26.9451 74.1814 27.0477 73.1841 27.2268 72.2036C28.3082 66.2831 29.3885 60.3624 30.488 54.4454C30.9798 51.7982 31.5151 49.1594 32.097 46.5527C32.4152 46.7822 32.6671 46.9758 32.919 47.1693Z" fill="#5E9BFB"/>
<path d="M29.1851 78.3637C29.5953 76.1728 30.0808 74.0574 30.4726 71.9242C31.6564 65.4785 32.7923 59.0237 33.9794 52.5786C34.1327 51.7463 34.4779 50.9505 34.8683 50.1733C35.042 50.3998 35.0817 50.5906 35.1152 50.886C35.1046 52.4119 35.1001 53.8331 35.0118 55.2563C34.6237 55.8287 34.151 56.3678 34.0412 56.9746C32.8122 63.7633 31.6466 70.5639 30.4321 77.3554C30.359 77.7643 30.0154 78.1233 29.7977 78.5055C29.6043 78.4807 29.4109 78.4559 29.1851 78.3637Z" fill="#548DF9"/>
<path d="M29.8442 78.5831C30.0155 78.1234 30.3591 77.7644 30.4322 77.3555C31.6467 70.564 32.8123 63.7634 34.0413 56.9747C34.1511 56.3679 34.6238 55.8288 35.0204 55.3115C35.1128 55.3648 35.1347 55.4742 35.1347 55.4742C35.13 57.2662 35.1253 59.0583 35.1158 61.0119C35.1051 61.2121 35.0992 61.2507 35.0089 61.2911C34.6976 61.5408 34.3243 61.7582 34.2673 62.0413C33.8523 64.1031 33.5139 66.1806 33.1266 68.2484C32.4747 71.7283 31.8044 75.2047 31.1418 78.6826C30.7248 78.6753 30.3077 78.668 29.8442 78.5831Z" fill="#5189F9"/>
<path d="M31.1895 78.6995C31.8045 75.2046 32.4748 71.7282 33.1267 68.2483C33.5141 66.1805 33.8524 64.103 34.2674 62.0412C34.3244 61.7581 34.6978 61.5406 35.0136 61.3955C35.1122 62.9915 35.1219 64.4847 35.1229 66.0815C35.1199 67.0848 35.1257 67.9846 35.1227 68.9592C35.108 69.1343 35.102 69.2345 35.019 69.3472C34.6368 69.9701 34.1822 70.5497 34.0526 71.1964C33.54 73.7538 33.1292 76.3323 32.6807 78.903C32.4444 78.9136 32.2082 78.9243 31.8409 78.8708C31.5855 78.7811 31.4611 78.7556 31.3368 78.7301C31.3368 78.7301 31.237 78.7165 31.1895 78.6995Z" fill="#4C83F8"/>
<path d="M27.1254 46.3413C27.094 47.5401 27.0956 48.7435 26.9029 49.9139C26.3784 53.0998 25.7912 56.2756 25.1827 59.4462C25.0489 60.143 24.7237 60.8019 24.4074 61.4932C24.3258 57.8491 24.3235 54.19 24.3183 50.425C24.3153 50.319 24.3277 50.2119 24.3952 50.1083C24.4869 49.8121 24.5112 49.6196 24.5356 49.427C25.2136 48.5412 25.8916 47.6555 26.6988 46.739C26.87 46.6445 26.9122 46.5807 26.9543 46.5168C26.9928 46.4548 27.0312 46.3928 27.1254 46.3413Z" fill="#70B4FF"/>
<path d="M25.1963 75.0168C25.7751 72.2202 26.3906 69.5012 26.9325 66.7672C27.4265 64.2744 27.8385 61.7648 28.2905 59.2633C29.0173 55.2403 29.7389 51.2161 30.4903 47.1978C30.5585 46.8331 30.827 46.507 31.1286 46.1277C31.2548 46.0924 31.3631 46.1026 31.3609 46.1938C31.304 46.4997 31.2347 46.7118 31.1966 46.9295C30.5102 50.8569 29.8374 54.7868 29.1417 58.7125C28.2592 63.6925 27.377 68.6727 26.4448 73.6431C26.3171 74.3239 25.9021 74.9492 25.6201 75.6002C25.4803 75.4294 25.3406 75.2586 25.1963 75.0168Z" fill="#63A0FC"/>
<path d="M25.6421 75.6628C25.9019 74.9492 26.3169 74.3239 26.4446 73.6431C27.3768 68.6726 28.2591 63.6924 29.1416 58.7125C29.8373 54.7868 30.5101 50.8569 31.1965 46.9294C31.2345 46.7118 31.3038 46.4997 31.4396 46.1925C31.6781 46.1074 31.8356 46.1148 32 46.1878C32.0149 46.3413 32.0228 46.4291 32.0307 46.5168C31.5151 49.1595 30.9798 51.7983 30.488 54.4455C29.3885 60.3625 28.3082 66.2832 27.2268 72.2037C27.0477 73.1842 26.9451 74.1814 26.7185 75.1495C26.6416 75.4776 26.2911 75.7397 25.9839 76.0341C25.8228 75.9327 25.7436 75.829 25.6421 75.6628Z" fill="#61A0FC"/>
<path d="M32.7729 78.9197C33.1291 76.3324 33.5398 73.7539 34.0524 71.1964C34.182 70.5497 34.6366 69.9702 35.0226 69.4448C35.1117 69.9854 35.12 70.441 35.1214 70.9979C35.1193 71.7763 35.1242 72.4534 35.1221 73.2328C35.1192 74.0863 35.1234 74.8375 35.1275 75.5888C35.1201 76.7188 35.1127 77.8489 35.0998 79.0849C34.7011 79.0429 34.317 78.8236 33.9115 78.769C33.5759 78.7239 33.215 78.8731 32.7729 78.9197Z" fill="#477CF7"/>
<path d="M29.0317 46.0896C28.7007 46.0915 28.461 46.0909 28.1313 46.0872C28.7984 45.9393 29.5547 45.6737 30.3125 45.669C36.0929 45.6335 41.8737 45.6489 47.7561 45.6372C47.0834 45.71 46.3106 45.8253 45.5338 45.8694C44.767 45.9129 43.9963 45.8844 43.0221 45.8868C41.6375 45.8937 40.4581 45.9013 39.1766 45.8987C36.7263 45.8911 34.3782 45.8937 31.943 45.8891C31.6238 45.8813 31.3916 45.8809 31.1595 45.8804C30.4806 45.9493 29.8018 46.0181 29.0317 46.0896Z" fill="#63A0FC"/>
<path d="M24.4672 49.4629C24.5111 49.6193 24.4868 49.8118 24.4117 50.0567C24.3736 49.9058 24.3862 49.7024 24.4672 49.4629Z" fill="#67A7FD"/>
<path d="M31.3672 78.7944C31.4612 78.7556 31.5855 78.7811 31.7533 78.855C31.6637 78.8885 31.5306 78.8736 31.3672 78.7944Z" fill="#477CF7"/>
<path d="M27.782 46.125C27.8079 46.1982 27.76 46.2466 27.6462 46.2923C27.6393 46.2431 27.6819 46.18 27.782 46.125Z" fill="#67A7FD"/>
<path d="M26.8992 46.5376C26.9118 46.5803 26.8697 46.6442 26.7745 46.7314C26.7624 46.6894 26.8034 46.6241 26.8992 46.5376Z" fill="#6DAFFE"/>
<path d="M35.2063 75.5885C35.1238 74.8377 35.1196 74.0865 35.2008 73.2323C35.5357 72.9494 35.8327 72.8108 36.0268 72.5822C36.8579 71.6033 37.6591 70.5983 38.4703 69.6022C40.81 66.7289 43.1249 63.8342 45.5034 60.9943C46.2326 60.1237 47.1354 59.4031 47.9586 58.6138C47.9801 59.4413 48.0015 60.2689 47.9892 61.1961C47.0549 62.1688 46.0711 62.9698 45.269 63.9277C42.5069 67.227 39.8212 70.5922 37.0738 73.9044C36.554 74.5311 35.8849 75.0301 35.2063 75.5885Z" fill="#6AB2FF"/>
<path d="M57.7792 63.5454C57.1211 63.5444 56.5253 63.679 56.0337 63.5068C55.4697 63.3091 54.6194 62.898 54.5563 62.4771C54.3547 61.1321 54.3613 59.7306 54.482 58.3686C54.5614 57.472 55.3179 57.0376 56.2022 57.0352C60.5635 57.0233 64.9248 57.0219 69.286 57.0362C70.1957 57.0392 70.9654 57.5302 71.0832 58.4072C71.2483 59.6368 71.2591 60.925 71.0881 62.1525C70.9495 63.147 70.182 63.5799 69.1021 63.565C65.3645 63.5135 61.6258 63.5453 57.7792 63.5454Z" fill="#99C9FF"/>
<path d="M35.1318 65.9783C35.1221 64.485 35.1124 62.9918 35.0981 61.394C35.0995 61.2509 35.1054 61.2123 35.1233 61.1162C35.9166 60.3448 36.7872 59.7082 37.4633 58.9031C39.864 56.0444 42.2027 53.132 44.5553 50.232C45.3162 49.2941 46.0252 48.312 46.8045 47.3906C47.0937 47.0487 47.5161 46.823 47.9531 46.5439C48.0399 48.1129 48.0513 49.6823 47.9669 51.3558C47.7064 51.5246 47.4834 51.5404 47.3853 51.661C44.1509 55.6354 40.9667 59.653 37.6746 63.5772C36.9388 64.4543 36.4519 65.7031 35.1318 65.9783Z" fill="#7BBAFF"/>
<path d="M35.1229 66.0817C36.4517 65.703 36.9386 64.4542 37.6744 63.5771C40.9666 59.6529 44.1507 55.6353 47.3851 51.6609C47.4833 51.5403 47.7062 51.5245 47.9458 51.4585C48.0209 52.3587 48.0212 53.2603 47.9221 54.2638C47.5306 54.5691 47.1722 54.7173 46.956 54.9842C43.3717 59.4081 39.8125 63.8529 36.219 68.2689C35.9727 68.5716 35.4992 68.6838 35.1314 68.8845C35.1257 67.9848 35.1199 67.085 35.1229 66.0817Z" fill="#75B7FF"/>
<path d="M47.991 58.5152C47.1349 59.403 46.2322 60.1236 45.503 60.9942C43.1245 63.834 40.8096 66.7287 38.4699 69.602C37.6587 70.5982 36.8575 71.6032 36.0264 72.582C35.8323 72.8107 35.5353 72.9493 35.2073 73.13C35.1241 72.4535 35.1193 71.7764 35.1998 70.9971C35.7291 70.4956 36.2335 70.1471 36.6071 69.6887C39.5053 66.133 42.3537 62.5352 45.2753 58.9996C46.0689 58.0392 47.0598 57.2469 47.9601 56.3774C47.9813 57.0572 48.0025 57.737 47.991 58.5152Z" fill="#6EB4FF"/>
<path d="M47.9922 56.2804C47.0598 57.247 46.069 58.0393 45.2753 58.9997C42.3538 62.5353 39.5054 66.1331 36.6071 69.6888C36.2335 70.1472 35.7291 70.4957 35.2068 70.8959C35.12 70.4412 35.1117 69.9856 35.0996 69.4325C35.1018 69.2347 35.1079 69.1345 35.1226 68.9595C35.4991 68.6839 35.9725 68.5717 36.2188 68.269C39.8123 63.853 43.3715 59.4081 46.9558 54.9843C47.1721 54.7174 47.5304 54.5692 47.892 54.3628C47.9823 54.9676 48.0033 55.5754 47.9922 56.2804Z" fill="#71B5FF"/>
<path d="M39.2786 45.9094C40.458 45.9017 41.6374 45.8941 42.9189 45.8957C42.3164 46.9447 41.6607 48.0231 40.8968 49.0157C39.4054 50.9535 37.8662 52.854 36.3146 54.7426C36.0565 55.0569 35.6358 55.2335 35.2126 55.474C35.1349 55.4743 35.113 55.3649 35.1045 55.3098C35.1004 53.8334 35.1049 52.4122 35.1981 50.8871C35.6309 50.6198 36.0726 50.5433 36.3018 50.2777C37.2352 49.1961 38.1237 48.0721 38.9806 46.9266C39.1778 46.663 39.1844 46.2524 39.2786 45.9094Z" fill="#8CC3FF"/>
<path d="M31.1537 45.9324C31.3915 45.881 31.6236 45.8814 31.9358 45.9458C32.0082 46.0471 32.0006 46.0846 31.993 46.122C31.8356 46.1147 31.6781 46.1073 31.4418 46.1012C31.3629 46.1025 31.2546 46.0923 31.2002 46.0906C31.1458 46.0888 31.148 45.9844 31.1537 45.9324Z" fill="#86BFFF"/>
<path d="M32 46.188C32.0006 46.0848 32.0082 46.0474 32.0229 45.9533C34.3781 45.8941 36.7262 45.8914 39.1764 45.8991C39.1843 46.2523 39.1777 46.6629 38.9806 46.9265C38.1236 48.072 37.2351 49.196 36.3017 50.2777C36.0725 50.5433 35.6308 50.6198 35.2042 50.7824C35.0819 50.5908 35.0422 50.4 34.9493 50.1597C34.5766 49.4466 34.2572 48.783 33.8628 48.1006C33.5378 47.804 33.2878 47.5262 32.9784 47.2089C32.667 46.976 32.4151 46.7825 32.097 46.553C32.0228 46.4293 32.0149 46.3415 32 46.188Z" fill="#95C7FF"/>
<rect x="54" y="37" width="31" height="15" rx="2" fill="#99C9FF"/>
</svg>
